<svg xmlns="http://www.w3.org/2000/svg" xmlns:xlink="http://www.w3.org/1999/xlink" width="379" height="379" overflow="hidden"><g transform="translate(-337 -910)"><path d="M337 1100C337 995.618 421.618 911 526 911 630.382 911 715 995.618 715 1100 715 1204.38 630.382 1289 526 1289 421.618 1289 337 1204.38 337 1100Z" fill="#FFFFFFFF" fill-rule="evenodd" fill-opacity="0"/><path d="M354.951 1246.26 386.514 1246.26C386.516 1246.3 386.513 1246.55 386.505 1247.01 386.497 1247.46 386.474 1247.87 386.437 1248.23 386.027 1254.31 385.544 1259.01 384.989 1262.35 384.433 1265.68 383.698 1267.77 382.783 1268.61 382.187 1269.2 381.533 1269.64 380.82 1269.93 380.107 1270.22 379.181 1270.39 378.041 1270.42 377.156 1270.5 375.932 1270.54 374.367 1270.54 372.803 1270.54 371.073 1270.5 369.178 1270.42L369.022 1266.41C370.329 1266.56 371.603 1266.65 372.842 1266.68 374.081 1266.72 374.907 1266.73 375.32 1266.72 376.108 1266.73 376.824 1266.68 377.467 1266.58 378.11 1266.47 378.612 1266.29 378.973 1266.02 379.456 1265.48 379.851 1263.86 380.159 1261.15 380.467 1258.45 380.823 1254.82 381.228 1250.27L359.771 1250.27 359.771 1279.79C359.667 1281.12 360.302 1282.08 361.676 1282.68 363.049 1283.28 365.783 1283.58 369.878 1283.57L378.663 1283.57C381.446 1283.58 383.532 1283.25 384.922 1282.57 386.312 1281.88 387.253 1280.77 387.744 1279.22 388.235 1277.67 388.525 1275.6 388.614 1273.02L392.967 1273.73C392.758 1277.15 392.269 1279.88 391.499 1281.92 390.728 1283.97 389.375 1285.44 387.439 1286.34 385.502 1287.24 382.681 1287.68 378.973 1287.66L369.878 1287.66C365.851 1287.67 362.753 1287.42 360.583 1286.92 358.413 1286.41 356.922 1285.58 356.109 1284.42 355.295 1283.26 354.909 1281.72 354.951 1279.79L354.951 1246.26ZM667.963 1239.65 667.963 1250.51 696.339 1250.51 696.339 1239.65 667.963 1239.65ZM401.441 1226.82 405.795 1226.82 405.795 1269.24 401.441 1269.24 401.441 1226.82ZM667.963 1225.24 667.963 1235.63 696.339 1235.63 696.339 1225.24 667.963 1225.24ZM539.292 1223.04 608.872 1223.04 608.872 1227.6 575.442 1227.6C575.397 1229.08 575.28 1230.6 575.073 1232.46 574.866 1234.33 574.357 1237.6 574.198 1238.78L573.547 1242.95C573.361 1244.06 573.189 1245.11 573.032 1246.1L614.158 1246.1 614.158 1250.74 580.884 1250.74 580.884 1278.77C580.795 1279.99 581.479 1280.93 582.935 1281.57 584.391 1282.22 587.154 1282.54 591.224 1282.55L600.087 1282.55C604.123 1282.6 606.798 1281.72 608.114 1279.89 609.429 1278.06 610.122 1274.93 610.193 1270.5L614.858 1271.21C614.653 1275.1 614.155 1278.2 613.363 1280.5 612.572 1282.81 611.158 1284.47 609.122 1285.48 607.086 1286.48 604.1 1286.98 600.164 1286.95L590.913 1286.95C586.808 1286.96 583.642 1286.69 581.414 1286.14 579.186 1285.59 577.65 1284.72 576.804 1283.51 575.959 1282.31 575.557 1280.73 575.598 1278.77L575.598 1250.74 572.721 1250.74C571.545 1255.41 569.423 1260.2 566.355 1265.11 563.287 1270.01 559.178 1274.57 554.029 1278.78 548.879 1283 542.593 1286.4 535.172 1289L533.228 1284.67C539.626 1282.58 545.134 1279.68 549.753 1275.98 554.371 1272.28 558.117 1268.22 560.991 1263.79 563.864 1259.37 565.883 1255.02 567.046 1250.74L533.539 1250.74 533.539 1246.1 567.513 1246.1C568.078 1243.21 568.599 1240.08 569.077 1236.7 569.555 1233.33 569.863 1230.3 570 1227.6L539.292 1227.6 539.292 1223.04ZM662.676 1221.23 701.314 1221.23 701.314 1254.68 682.423 1254.68C683.127 1256.86 684.089 1259.11 685.309 1261.42 686.529 1263.73 687.743 1265.76 688.953 1267.51 691.352 1266.19 693.921 1264.66 696.659 1262.92 699.398 1261.17 701.675 1259.58 703.491 1258.14L706.678 1261.37C704.445 1262.93 701.857 1264.61 698.914 1266.42 695.971 1268.22 693.247 1269.77 690.741 1271.05 692.947 1273.73 695.59 1276.25 698.671 1278.61 701.751 1280.97 704.861 1282.7 708 1283.8L705.901 1288.29C698.893 1285.45 692.949 1281.04 688.069 1275.06 683.189 1269.08 679.674 1262.28 677.525 1254.68L667.963 1254.68 667.963 1281.92 684.444 1278.37C684.402 1279.07 684.389 1279.8 684.405 1280.58 684.421 1281.35 684.486 1282.01 684.599 1282.55 678.839 1283.87 674.388 1284.94 671.245 1285.75 668.102 1286.57 665.845 1287.21 664.473 1287.68 663.101 1288.16 662.191 1288.54 661.743 1288.84L659.8 1284.83C660.464 1284.58 661.099 1283.98 661.704 1283.03 662.31 1282.08 662.634 1280.87 662.676 1279.4L662.676 1221.23ZM651.792 1220.91 656.301 1222.57C655.712 1223.92 655.064 1225.39 654.358 1226.97L649.479 1238.31C648.835 1239.9 648.258 1241.36 647.75 1242.72 650.485 1245.74 652.458 1248.79 653.668 1251.87 654.878 1254.95 655.47 1257.64 655.446 1259.95 655.451 1261.78 655.189 1263.5 654.659 1265.11 654.129 1266.72 653.303 1267.89 652.181 1268.61 651.578 1268.97 651.258 1269.24 650.257 1269.52 649.255 1269.8 647.163 1270.25 646.172 1270.29 644.757 1270.39 643.203 1270.32 641.763 1270.11L641.142 1265.94 643.425 1266.07C644.23 1266.12 644.972 1266.13 645.651 1266.09 646.227 1266.02 646.843 1265.93 647.497 1265.82 648.151 1265.71 648.65 1265.54 648.993 1265.31 649.7 1264.86 650.25 1264.06 650.646 1262.93 651.041 1261.79 651.241 1260.64 651.248 1259.48 651.285 1257.41 650.647 1254.91 649.334 1251.97 648.02 1249.04 645.808 1246.09 642.696 1243.11 643.356 1241.76 643.692 1241.07 644.63 1238.71 645.568 1236.35 647.466 1231.18 648.323 1228.95 648.82 1227.61 649.303 1226.4 649.771 1225.32L635 1225.32 635 1288.69 630.646 1288.69 630.646 1220.91 651.792 1220.91ZM419.322 1218.94 423.909 1218.94 423.909 1281.76C423.918 1283.43 423.646 1284.73 423.092 1285.64 422.538 1286.56 421.644 1287.21 420.41 1287.58 419.113 1287.97 417.14 1288.22 414.492 1288.34 411.844 1288.46 408.375 1288.5 404.084 1288.45L403.696 1284.12 410.916 1284.19 415.979 1284.2 418.389 1283.65C418.982 1283.31 419.293 1282.73 419.322 1281.92L419.322 1218.94ZM483.622 1218.79 488.364 1219.81C487.63 1221.53 486.765 1223.34 485.769 1225.23 484.773 1227.12 483.85 1228.91 483 1230.59L521.715 1230.59 521.715 1235.24 493.65 1235.24 493.65 1247.6 519.772 1247.6 519.772 1251.85 493.65 1251.85 493.65 1264.91 520.938 1264.91 520.938 1269.24 493.65 1269.24 493.65 1288.69 487.975 1288.69 487.975 1235.24 480.123 1235.24C478.261 1238.18 476.194 1241.12 473.923 1244.05 471.653 1246.99 469.392 1249.54 467.14 1251.69L463.875 1248.23C466.392 1246.05 468.899 1243.32 471.396 1240.05 473.893 1236.78 476.204 1233.29 478.329 1229.59 480.455 1225.88 482.219 1222.28 483.622 1218.79ZM460.921 1218 466.518 1219.34C465.284 1222 463.865 1224.82 462.262 1227.8 460.658 1230.78 458.812 1233.52 456.723 1236.03L456.723 1288.61 451.592 1288.61 451.592 1243.9 446.568 1249.12C444.878 1250.87 443.34 1252.35 441.952 1253.58L438.764 1249.33C441.682 1246.94 444.588 1244 447.48 1240.52 450.372 1237.04 453.001 1233.35 455.367 1229.43 457.732 1225.51 459.583 1221.7 460.921 1218ZM370.655 1218 375.32 1219.26 373.454 1222.33C374.561 1223.34 375.922 1224.48 377.399 1225.82 378.876 1227.16 380.29 1228.41 382.316 1230.36 384.343 1232.31 387.313 1235.19 389.556 1237.51 391.799 1239.83 393.532 1241.8 394.755 1243.42L390.946 1246.57C389.791 1245.13 388.311 1243.4 386.505 1241.39 384.699 1239.38 382.733 1237.28 380.606 1235.08L375.66 1230.23C374.223 1228.85 372.84 1227.58 371.51 1226.42 368.588 1230.42 365.025 1234.45 360.821 1238.52 356.616 1242.6 352.275 1246.12 347.799 1249.09L345 1245.39C348.415 1243.27 351.795 1240.65 355.141 1237.56 358.487 1234.46 361.522 1231.2 364.246 1227.78 366.969 1224.36 369.106 1221.1 370.655 1218Z" fill-rule="evenodd" fill="CurrentColor"/></g></svg>
