<svg xmlns="http://www.w3.org/2000/svg" xmlns:xlink="http://www.w3.org/1999/xlink" width="379" height="379" overflow="hidden"><g clip-path="url(#clip0)" transform="translate(-139 -680)"><g fill="none" clip-path="url(#clip1)"/><path d="M363.86 913.232C363.204 913.765 361.722 914.244 359.412 914.668 357.102 915.091 354.636 915.491 352.015 915.868 349.299 916.276 346.911 917.045 344.852 918.175 342.791 919.304 341.762 921.125 341.762 923.635 341.762 925.769 342.596 927.441 344.266 928.649 345.936 929.857 348.207 930.461 351.078 930.461 355.448 930.461 358.671 929.323 360.746 927.048 362.822 924.773 363.86 922.113 363.86 919.069ZM266.978 913.232C266.322 913.765 264.84 914.244 262.53 914.668 260.22 915.091 257.755 915.491 255.133 915.868 252.417 916.276 250.03 917.045 247.97 918.175 245.91 919.304 244.88 921.125 244.88 923.635 244.88 925.769 245.715 927.441 247.384 928.649 249.054 929.857 251.325 930.461 254.196 930.461 258.566 930.461 261.789 929.323 263.864 927.048 265.94 924.773 266.978 922.113 266.978 919.069ZM401.954 895.438C397.959 895.438 394.72 896.905 392.239 899.839 389.758 902.773 388.517 907.034 388.517 912.62 388.517 918.206 389.758 922.466 392.239 925.401 394.72 928.335 397.959 929.802 401.954 929.802 406.167 929.802 409.53 928.241 412.043 925.118 414.556 921.995 415.812 917.829 415.812 912.62 415.812 907.41 414.556 903.244 412.043 900.121 409.53 896.999 406.167 895.438 401.954 895.438ZM452.564 895.108C448.819 895.108 445.768 896.261 443.411 898.568 441.055 900.875 439.673 904.005 439.268 907.959L465.907 907.959C465.501 904.005 464.112 900.875 461.74 898.568 459.368 896.261 456.309 895.108 452.564 895.108ZM501.395 887.341C502.144 887.341 502.831 887.372 503.455 887.435 504.079 887.497 504.594 887.545 505 887.576L505 896.85C504.625 896.756 503.954 896.654 502.987 896.544 502.019 896.434 500.958 896.379 499.803 896.379 497.025 896.379 494.645 897.352 492.663 899.298 490.681 901.243 489.69 904.241 489.69 908.289L489.69 937.664 479.812 937.664 479.812 887.953 489.269 887.953 489.269 896.002 489.456 896.002C490.362 893.272 491.79 891.146 493.74 889.624 495.691 888.102 498.243 887.341 501.395 887.341ZM399.894 886.964C403.109 886.964 406.058 887.654 408.742 889.035 411.427 890.416 413.596 892.582 415.25 895.532L415.297 895.532 415.297 887.953 425.035 887.953 425.035 937.005C425.035 942.026 424.021 946.074 421.992 949.15 419.963 952.225 417.248 954.469 413.846 955.882 410.443 957.294 406.667 958 402.516 958 396.461 958 391.513 956.651 387.674 953.952 383.835 951.253 381.588 947.471 380.933 942.606L390.811 942.606C391.435 945.023 392.793 946.843 394.884 948.067 396.975 949.291 399.519 949.903 402.516 949.903 406.511 949.903 409.632 948.82 411.879 946.655 414.126 944.49 415.25 941.398 415.25 937.381L415.25 929.849 415.203 929.849C413.487 932.736 411.325 934.87 408.719 936.251 406.113 937.632 403.187 938.323 399.941 938.323 395.633 938.323 391.872 937.232 388.657 935.051 385.443 932.87 382.946 929.857 381.167 926.013 379.387 922.168 378.498 917.72 378.498 912.667 378.498 907.614 379.395 903.158 381.19 899.298 382.985 895.438 385.489 892.417 388.704 890.236 391.919 888.055 395.649 886.964 399.894 886.964ZM353.981 886.964C360.067 886.964 364.858 888.47 368.354 891.483 371.85 894.496 373.598 898.529 373.598 903.581L373.598 937.664 363.86 937.664 363.86 930.602 363.672 930.602C362.642 932.611 361.011 934.423 358.78 936.04 356.548 937.656 353.31 938.464 349.065 938.464 344.134 938.464 340.045 937.201 336.799 934.674 333.553 932.148 331.93 928.406 331.93 923.447 331.93 919.681 332.858 916.786 334.715 914.762 336.572 912.737 338.991 911.286 341.972 910.407 344.953 909.529 348.113 908.885 351.453 908.477 354.543 908.101 356.993 907.787 358.803 907.536 360.614 907.285 361.901 906.908 362.666 906.406 363.43 905.904 363.813 905.041 363.813 903.817L363.813 903.393C363.813 900.977 362.939 898.992 361.191 897.438 359.443 895.885 356.993 895.108 353.841 895.108 350.688 895.108 348.113 895.869 346.116 897.391 344.118 898.913 343.026 900.82 342.838 903.111L333.147 903.111C333.365 898.372 335.348 894.496 339.093 891.483 342.838 888.47 347.801 886.964 353.981 886.964ZM308.677 886.964C312.079 886.964 315.13 887.709 317.83 889.2 320.53 890.691 322.66 892.895 324.22 895.814 325.781 898.733 326.561 902.357 326.561 906.688L326.561 937.664 316.683 937.664 316.683 907.912C316.683 903.927 315.731 900.922 313.827 898.898 311.923 896.873 309.27 895.861 305.868 895.861 302.497 895.861 299.664 896.905 297.37 898.992 295.076 901.079 293.929 904.429 293.929 909.042L293.929 937.664 284.051 937.664 284.051 887.953 293.742 887.953 293.742 895.438C297.113 889.789 302.091 886.964 308.677 886.964ZM257.099 886.964C263.185 886.964 267.976 888.47 271.472 891.483 274.968 894.496 276.716 898.529 276.716 903.581L276.716 937.664 266.978 937.664 266.978 930.602 266.79 930.602C265.76 932.611 264.13 934.423 261.898 936.04 259.666 937.656 256.428 938.464 252.183 938.464 247.252 938.464 243.163 937.201 239.917 934.674 236.671 932.148 235.048 928.406 235.048 923.447 235.048 919.681 235.976 916.786 237.834 914.762 239.691 912.737 242.11 911.286 245.09 910.407 248.071 909.529 251.231 908.885 254.571 908.477 257.661 908.101 260.111 907.787 261.921 907.536 263.732 907.285 265.019 906.908 265.784 906.406 266.549 905.904 266.931 905.041 266.931 903.817L266.931 903.393C266.931 900.977 266.057 898.992 264.309 897.438 262.561 895.885 260.111 895.108 256.959 895.108 253.806 895.108 251.231 895.869 249.234 897.391 247.236 898.913 246.144 900.82 245.956 903.111L236.265 903.111C236.484 898.372 238.466 894.496 242.211 891.483 245.956 888.47 250.919 886.964 257.099 886.964ZM452.47 886.823C457.152 886.823 461.217 887.921 464.666 890.118 468.115 892.315 470.792 895.367 472.696 899.274 474.6 903.181 475.551 907.693 475.551 912.808L475.551 915.491 439.174 915.491C439.361 919.979 440.649 923.604 443.036 926.366 445.424 929.127 448.787 930.508 453.126 930.508 456.372 930.508 459.04 929.771 461.132 928.296 463.223 926.821 464.612 924.906 465.298 922.553L474.802 922.553C474.209 925.754 472.891 928.578 470.846 931.026 468.802 933.474 466.243 935.38 463.168 936.746 460.094 938.111 456.7 938.793 452.985 938.793 448.085 938.793 443.879 937.679 440.368 935.451 436.857 933.223 434.157 930.155 432.268 926.248 430.38 922.341 429.436 917.892 429.436 912.902 429.436 907.85 430.419 903.362 432.385 899.439 434.352 895.516 437.067 892.432 440.532 890.189 443.996 887.945 447.976 886.823 452.47 886.823ZM159 867.522 173.654 867.522 189.291 908.618C189.915 910.407 190.727 912.753 191.726 915.656 192.724 918.559 193.63 921.234 194.441 923.682 195.221 921.234 196.111 918.559 197.11 915.656 198.109 912.753 198.92 910.407 199.544 908.618L214.947 867.522 229.648 867.522 229.648 937.664 219.442 937.664 219.442 899.439C219.442 896.928 219.473 894.002 219.536 890.659 219.598 887.317 219.676 883.983 219.77 880.656 218.49 884.453 217.28 888.031 216.141 891.389 215.002 894.747 214.058 897.43 213.309 899.439L198.608 937.664 190.087 937.664 175.246 899.439C174.528 897.524 173.615 894.99 172.507 891.836 171.399 888.682 170.205 885.285 168.925 881.645 169.019 884.846 169.097 888.015 169.159 891.154 169.222 894.292 169.253 897.054 169.253 899.439L169.253 937.664 159 937.664ZM260.361 802.998C256.147 802.998 252.815 804.575 250.365 807.729 247.915 810.883 246.69 815.143 246.69 820.51 246.69 825.814 247.907 830.027 250.342 833.15 252.776 836.272 256.116 837.834 260.361 837.834 264.606 837.834 267.945 836.264 270.38 833.126 272.814 829.988 274.032 825.782 274.032 820.51 274.032 815.175 272.807 810.922 270.356 807.753 267.906 804.583 264.574 802.998 260.361 802.998ZM387.643 802.716C383.898 802.716 380.847 803.869 378.49 806.176 376.134 808.482 374.753 811.613 374.347 815.567L400.986 815.567C400.58 811.613 399.191 808.482 396.819 806.176 394.447 803.869 391.388 802.716 387.643 802.716ZM439.517 794.572C442.919 794.572 445.97 795.317 448.67 796.808 451.37 798.299 453.5 800.503 455.061 803.422 456.621 806.34 457.402 809.965 457.402 814.296L457.402 845.271 447.523 845.271 447.523 815.52C447.523 811.534 446.571 808.529 444.667 806.505 442.763 804.481 440.11 803.469 436.708 803.469 433.337 803.469 430.505 804.512 428.211 806.599 425.917 808.686 424.77 812.037 424.77 816.65L424.77 845.271 414.891 845.271 414.891 795.56 424.582 795.56 424.582 803.045C427.953 797.396 432.932 794.572 439.517 794.572ZM313.671 794.572C317.073 794.572 320.124 795.317 322.824 796.808 325.523 798.299 327.654 800.503 329.214 803.422 330.775 806.34 331.555 809.965 331.555 814.296L331.555 845.271 321.677 845.271 321.677 815.52C321.677 811.534 320.725 808.529 318.821 806.505 316.917 804.481 314.264 803.469 310.862 803.469 307.491 803.469 304.658 804.512 302.364 806.599 300.07 808.686 298.923 812.037 298.923 816.65L298.923 845.271 289.044 845.271 289.044 795.56 298.736 795.56 298.736 803.045C302.107 797.396 307.085 794.572 313.671 794.572ZM387.549 794.431C392.231 794.431 396.297 795.529 399.746 797.726 403.194 799.923 405.871 802.975 407.775 806.882 409.679 810.789 410.631 815.3 410.631 820.416L410.631 823.099 374.253 823.099C374.44 827.587 375.728 831.212 378.116 833.973 380.503 836.735 383.866 838.116 388.205 838.116 391.451 838.116 394.12 837.378 396.211 835.903 398.302 834.428 399.691 832.514 400.378 830.16L409.882 830.16C409.289 833.361 407.97 836.186 405.926 838.634 403.881 841.082 401.322 842.988 398.247 844.353 395.173 845.719 391.779 846.401 388.064 846.401 383.164 846.401 378.958 845.287 375.447 843.059 371.936 840.831 369.236 837.763 367.347 833.856 365.459 829.948 364.515 825.5 364.515 820.51 364.515 815.457 365.498 810.969 367.465 807.047 369.431 803.124 372.146 800.04 375.611 797.796 379.075 795.552 383.055 794.431 387.549 794.431ZM260.361 794.431C265.074 794.431 269.202 795.537 272.744 797.749 276.287 799.962 279.049 803.022 281.031 806.929 283.013 810.836 284.004 815.363 284.004 820.51 284.004 825.594 283.013 830.082 281.031 833.973 279.049 837.865 276.287 840.909 272.744 843.106 269.202 845.303 265.074 846.401 260.361 846.401 255.648 846.401 251.512 845.303 247.954 843.106 244.396 840.909 241.626 837.865 239.644 833.973 237.662 830.082 236.671 825.594 236.671 820.51 236.671 815.363 237.662 810.836 239.644 806.929 241.626 803.022 244.396 799.962 247.954 797.749 251.512 795.537 255.648 794.431 260.361 794.431ZM468.716 782.003 478.641 782.003 478.641 795.56 488.661 795.56 488.661 803.751 478.641 803.751 478.641 832.138C478.641 833.989 479.016 835.276 479.765 835.998 480.514 836.719 481.872 837.08 483.838 837.08L488.661 837.08 488.661 845.271 482.434 845.271C473.289 845.271 468.716 841.317 468.716 833.409L468.716 803.751 460.008 803.751 460.008 795.56 468.716 795.56ZM342.87 782.003 352.795 782.003 352.795 795.56 362.814 795.56 362.814 803.751 352.795 803.751 352.795 832.138C352.795 833.989 353.169 835.276 353.919 835.998 354.668 836.719 356.025 837.08 357.992 837.08L362.814 837.08 362.814 845.271 356.587 845.271C347.442 845.271 342.87 841.317 342.87 833.409L342.87 803.751 334.161 803.751 334.161 795.56 342.87 795.56ZM204.944 774C210.032 774 214.643 775.004 218.779 777.013 222.914 779.021 226.34 781.854 229.055 785.51 231.771 789.166 233.534 793.489 234.346 798.479L223.765 798.479C222.735 793.709 220.542 790.029 217.187 787.44 213.832 784.851 209.782 783.556 205.038 783.556 200.449 783.556 196.501 784.67 193.193 786.899 189.884 789.127 187.333 792.249 185.538 796.266 183.743 800.284 182.846 804.944 182.846 810.248 182.846 815.551 183.735 820.196 185.515 824.182 187.294 828.167 189.845 831.274 193.169 833.503 196.493 835.731 200.449 836.845 205.038 836.845 209.751 836.845 213.785 835.558 217.14 832.985 220.495 830.411 222.719 826.755 223.812 822.016L234.346 822.016C233.534 826.975 231.771 831.282 229.055 834.938 226.34 838.595 222.914 841.419 218.779 843.412 214.643 845.405 210.032 846.401 204.944 846.401 198.545 846.401 192.896 844.879 187.996 841.835 183.096 838.791 179.272 834.554 176.526 829.125 173.779 823.695 172.405 817.403 172.405 810.248 172.405 803.029 173.779 796.706 176.526 791.276 179.272 785.847 183.088 781.61 187.972 778.566 192.857 775.522 198.514 774 204.944 774Z" fill="CurrentColor" fill-rule="evenodd"/></g></svg>
